<?xml version="1.0" standalone="no"?>
<!DOCTYPE svg PUBLIC "-//W3C//DTD SVG 20010904//EN"
 "http://www.w3.org/TR/2001/REC-SVG-20010904/DTD/svg10.dtd">
<svg version="1.0" xmlns="http://www.w3.org/2000/svg"
 width="260.000000pt" height="260.000000pt" viewBox="0 0 260.000000 260.000000"
 preserveAspectRatio="xMidYMid meet">
<metadata>
Created by potrace 1.11, written by Peter Selinger 2001-2013
</metadata>
<g transform="translate(0.000000,260.000000) scale(0.100000,-0.100000)"
fill="#000000" stroke="none">
<path d="M910 2345 l-325 -165 62 0 c60 0 71 5 328 135 l265 136 271 -136
c259 -131 272 -136 325 -133 l54 3 -323 163 c-178 89 -326 162 -328 162 -2 -1
-150 -75 -329 -165z"/>
<path d="M1011 2298 c-204 -104 -228 -118 -194 -118 142 -2 877 1 879 3 2 1
-100 54 -225 117 l-229 115 -231 -117z"/>
<path d="M673 2152 l-143 -3 0 -29 0 -30 712 2 711 3 1 28 2 27 -506 1 c-278
0 -534 1 -570 2 -36 1 -129 1 -207 -1z"/>
<path d="M534 2031 c-2 -2 -4 -16 -4 -30 l0 -26 712 0 711 0 1 28 c1 15 -3 27
-9 28 -36 3 -1407 3 -1411 0z"/>
<path d="M630 1931 c0 -33 27 -45 108 -46 82 -1 112 11 112 47 0 16 -10 18
-110 18 -101 0 -110 -2 -110 -19z"/>
<path d="M974 1935 c-13 -32 25 -49 109 -50 83 0 109 10 115 48 3 15 -8 17
-108 17 -88 0 -112 -3 -116 -15z"/>
<path d="M1303 1933 c0 -35 25 -45 109 -47 85 -1 115 11 115 47 0 15 -12 17
-112 17 -99 0 -112 -2 -112 -17z"/>
<path d="M1634 1935 c-13 -33 28 -50 114 -49 83 1 104 10 110 47 3 15 -8 17
-108 17 -90 0 -112 -3 -116 -15z"/>
<path d="M668 1424 l-3 -437 -50 -12 c-27 -7 -52 -14 -55 -14 -3 0 -36 -9 -74
-18 -61 -16 -88 -34 -74 -49 3 -2 47 2 99 10 200 31 383 41 729 41 254 0 492
-9 553 -21 9 -1 45 -5 79 -9 34 -3 84 -8 112 -11 28 -4 53 -6 56 -6 22 -1 29
4 24 16 -5 12 -133 53 -219 71 l-31 6 1 435 0 435 -70 -3 -70 -3 -1 -410 c-1
-225 -2 -416 -3 -424 0 -7 -7 -11 -16 -8 -8 4 -47 9 -87 13 -40 3 -75 8 -78
11 -3 3 -5 188 -5 411 l0 407 -64 3 c-35 2 -67 -1 -70 -7 -3 -5 -6 -184 -5
-398 0 -213 -1 -393 -3 -399 -2 -7 -38 -10 -96 -9 l-92 1 0 404 0 405 -70 3
-70 3 0 -412 c0 -359 -2 -412 -15 -414 -8 -1 -44 -5 -80 -9 -36 -4 -75 -10
-87 -13 l-23 -5 0 426 0 426 -70 0 -70 0 -2 -436z"/>
<path d="M684 803 c-9 -15 -15 -16 -38 -5 -36 16 -99 15 -140 -2 -84 -35 -107
-151 -45 -230 12 -15 56 -47 100 -72 89 -51 90 -53 91 -95 1 -42 -40 -82 -85
-82 -46 0 -102 36 -117 76 -27 73 -29 73 -30 7 -1 -36 -3 -73 -5 -82 -2 -10 1
-18 6 -18 5 0 9 7 9 15 0 19 9 19 77 -1 104 -30 200 10 223 95 22 81 -4 125
-108 190 -118 74 -137 99 -124 163 4 16 59 35 92 32 41 -5 62 -24 89 -79 l20
-40 0 73 c0 39 -1 72 -2 72 -1 0 -7 -8 -13 -17z"/>
<path d="M760 800 c0 -5 5 -10 11 -10 5 0 7 5 4 10 -3 6 -8 10 -11 10 -2 0 -4
-4 -4 -10z"/>
<path d="M790 803 c0 -3 6 -10 13 -17 9 -10 12 -66 11 -232 -1 -120 -2 -222
-3 -226 0 -5 -13 -8 -28 -8 -53 0 -15 -10 43 -11 88 -2 173 3 144 8 -44 8 -48
18 -46 130 l1 106 55 2 c97 3 160 54 160 129 0 92 -48 118 -222 121 -70 1
-128 0 -128 -2z m216 -34 c15 -16 19 -36 19 -86 -1 -59 -3 -68 -28 -89 -16
-13 -38 -24 -51 -24 -22 0 -22 2 -21 98 1 53 2 103 3 110 3 20 57 14 78 -9z"/>
<path d="M1392 790 c-11 -27 -26 -66 -93 -250 -23 -63 -49 -135 -58 -160 -14
-36 -24 -47 -51 -57 -33 -11 -29 -12 45 -12 66 1 75 2 48 10 -32 9 -38 25 -22
54 3 6 11 29 19 53 l13 42 67 0 67 0 19 -62 c24 -80 24 -80 -10 -84 -71 -7
-28 -14 90 -13 116 0 126 2 94 13 -37 13 -41 23 -197 436 -20 53 -21 54 -31
30z m-2 -217 c13 -38 25 -73 27 -78 2 -6 -21 -10 -57 -10 -50 0 -59 2 -54 15
3 8 15 43 26 78 12 34 24 62 28 62 3 0 17 -30 30 -67z"/>
<path d="M1825 802 c-68 -23 -136 -101 -153 -178 -14 -63 -4 -142 24 -194 62
-113 210 -164 294 -101 28 20 28 20 46 0 9 -10 19 -17 21 -15 8 8 11 156 4
156 -4 0 -12 -20 -19 -44 -7 -28 -24 -54 -48 -76 -33 -29 -42 -32 -82 -27 -55
6 -79 29 -103 98 -27 80 -19 242 15 308 24 45 52 64 98 64 34 0 47 -6 70 -32
15 -17 33 -51 39 -76 6 -25 14 -43 18 -40 6 7 11 155 4 155 -2 0 -12 -5 -22
-12 -15 -9 -26 -8 -54 5 -35 17 -113 21 -152 9z"/>
</g>
</svg>
